<svg xmlns="http://www.w3.org/2000/svg" viewBox="0 0 350 70"><g id="Layer_1" data-name="Layer 1"><path d="M60.93,69.66.14,69.8Q0,53.44,12.46,43.69l35.6-27.46H13.69Q0,16.23,0,0H74.07Q73.8,16,62.3,25.16L26.56,53.43H75.44Q75.44,69.66,60.93,69.66Z" style="fill:#5d2a7c"/><path d="M243.34,46.8h.14l20.67,22.86H241.7L221.29,46.94H197.88V69.66H181.45V30.57l59.29.14q3.56,0,3.56-7.17t-3.56-7.31H196.92q-15.46,0-15.47-16.23h59.29a17.64,17.64,0,0,1,14.78,7.44,25.62,25.62,0,0,1,5.21,16.1,25.06,25.06,0,0,1-5.21,16A17.58,17.58,0,0,1,243.34,46.8Z" style="fill:#5d2a7c"/><path d="M350,0,314.13,63.71q-6.72,12.58-14,0L264.15,0H282.5l24.78,43.15L331.65,0Z" style="fill:#5d2a7c"/><path d="M82.8,70,118.68,6.29q6.7-12.58,14,0l36,63.71H150.31L125.52,26.85,101.15,70Z" style="fill:#5d2a7c"/></g></svg>